<svg clip-rule="evenodd" fill-rule="evenodd" stroke-linejoin="round" stroke-miterlimit="2" viewBox="0 0 73 87" xmlns="http://www.w3.org/2000/svg"><g fill="#e1e1e1" fill-rule="nonzero" transform="translate(-13.8237 -6.533)"><path d="m51.35 85.74c-.652-.045-1.354 4.546-1.354 6.873 0 .755.514.854 1.646.854 1.056 0 1.228-.203 1.396-.729.301-.926-1.036-6.949-1.688-6.998z"/><path d="m54.483 87.307c-.667-.076-1.414 4.305-1.209 5.354.092.481 1.007.388 1.465.354.458-.031 1.543-.388 1.496-1.723-.045-1.332-1.086-3.905-1.752-3.985z"/><path d="m57.896 86.051c-.404-.007-1.393 2.516-1.383 4.889.002.92.9 1.271 1.619 1.369.737.104 1.281-.379 1.498-1.076.219-.698.039-5.149-1.734-5.182z"/><path d="m61.416 86.252c-.485-.229-1.465 2.121-1.488 3.012-.017.588.101.875.293 1.463.233.705 1.798-.465 1.903-.961.108-.495-.172-3.256-.708-3.514z"/><path d="m63.211 85.312c-.259.056-.831 1.715-.874 2.729-.011.258.065 1.465.263 1.423.189-.044.406-.581.549-.519.14.062.475-.27.72-.537.249-.271-.03-.596-.052-1.102-.023-.507-.348-2.048-.606-1.994z"/><path d="m65.229 83.643c-.378.066-1.047 1.771-1.165 2.354 0 0-.087 1.163.228 1.396.312.229.288-.43.551-.533.261-.108.591-.496.722-.861.126-.373.038-2.423-.336-2.356z"/><path d="m48.646 85.74c-.65.049-1.989 6.072-1.69 6.998.172.525.342.729 1.396.729 1.132 0 1.646-.1 1.646-.854.001-2.327-.699-6.918-1.352-6.873z"/><path d="m45.513 87.307c-.666.08-1.705 2.653-1.754 3.986-.047 1.335 1.04 1.689 1.499 1.723.457.031 1.37.127 1.466-.354.203-1.053-.545-5.433-1.211-5.355z"/><path d="m42.101 86.051c-1.772.033-1.954 4.484-1.737 5.182.217.699.761 1.182 1.498 1.076.721-.099 1.62-.449 1.623-1.369.006-2.376-.982-4.896-1.384-4.889z"/><path d="m38.581 86.252c-.537.258-.812 3.02-.707 3.514.108.496 1.671 1.666 1.902.961.191-.588.31-.875.295-1.463-.026-.891-1.004-3.243-1.49-3.012z"/><path d="m36.786 85.312c-.258-.057-.583 1.485-.604 1.994-.022.506-.306.829-.057 1.102.248.27.581.602.723.537.14-.063.355.475.551.519.193.042.271-1.165.26-1.423-.045-1.014-.615-2.673-.873-2.729z"/><path d="m34.769 83.643c-.377-.064-.465 1.983-.334 2.354.129.363.462.753.721.859.261.105.239.767.551.533.313-.229.229-1.395.229-1.395-.122-.582-.789-2.285-1.167-2.351z"/><path d="m83.613 53.809c1.421-2.555 2.896-9.592 2.498-12.372s-2.214-4.996-2.498-10.046c-.284-5.051-4.596-13.734-10.61-17.31-6.019-3.575-15.042-7.548-23.004-7.548-7.963 0-16.984 3.973-23.003 7.548-6.016 3.575-10.329 12.259-10.613 17.31-.281 5.05-2.099 7.266-2.493 10.046-.399 2.78 1.074 9.817 2.493 12.372.115 4.711.284 6.695 1.762 7.549-.908 1.134-2.95 3.648-2.496 5.312.453 1.665 3.519 6.944 5.445 8.194 1.932 1.247 4.599.737 6.866 1.589 2.271.852 6.358.906 6.698 2.496.34 1.589.17 4.48.17 4.48.755.006 1.174 2.172 1.365 2.172.19 0 .12-.842.647-.721.527.119.813 1.893 1.029 1.915.217.022.288-1.058.865-.963.577.099.964 1.373 1.371 1.442.409.072 1.111-1.803 1.954-1.731.843.073 1.388 2.497 1.917 2.521.527.023.941-1.457 1.473-1.457.528 0 .932 1.48 1.463 1.457.528-.023 1.035-3.387 1.803-3.34.771.049.986 2.741 1.281 2.741s.511-2.692 1.281-2.741c.769-.047 1.274 3.314 1.804 3.34.529.024.934-1.457 1.461-1.457.53 0 .945 1.48 1.476 1.457.528-.023 1.073-2.447 1.916-2.521.843-.069 1.545 1.806 1.954 1.731.407-.069.794-1.348 1.369-1.442.577-.095.649.985.864.963.219-.022.503-1.796 1.031-1.915.529-.121.458.721.649.721.19 0 .607-2.166 1.362-2.172 0 0-.17-2.894.172-4.48.341-1.59 4.427-1.646 6.696-2.496 2.271-.852 4.938-.342 6.865-1.589 1.931-1.25 4.995-6.529 5.449-8.194.452-1.664-1.592-4.181-2.497-5.312 1.481-.854 1.652-2.838 1.765-7.549zm-61.809 3.212c-.047 3.136-.117 5.422-.632 6.317l-.213.373-.429-.03c-.124-.01-.245-.021-.365-.033-.643-.061-.824-.056-1.008.149-.134.146-.32.226-.508.226-.16 0-.324-.059-.453-.174-.28-.252-.303-.685-.052-.965.608-.676 1.323-.667 1.979-.605.256-1.088.293-3.656.317-5.275.016-1.109.027-2.07.086-2.688.185-2.049.608-3.318 2.768-5.881 1.522-1.812.979-4.421.292-7.719-.146-.718-.304-1.457-.439-2.223-.066-.37.178-.725.548-.792.368-.065.724.18.791.549.137.749.29 1.479.436 2.188.732 3.517 1.366 6.555-.583 8.872-2.017 2.399-2.297 3.404-2.453 5.129-.053.568-.066 1.547-.082 2.582zm16.031 12.394c-.618 0-1.683.079-1.846.604-.091.291-.36.479-.649.479-.065 0-.135-.012-.2-.031-.36-.107-.562-.49-.449-.853.318-1.035 1.38-1.562 3.146-1.562.378 0 .684.308.684.683-.005.372-.31.68-.686.68zm5.756-12.077c-.671 3.32-4.508 7.71-10.637 9.096-6.13 1.385-8.58-3.519-9.214-8.226-.631-4.704 1.622-6.405 6.485-8.461 4.862-2.058 8.343-1.662 10.717.199 2.375 1.857 2.951 5.917 2.649 7.392zm9.394 21.197c-1.645 1.58-2.475 1.461-2.986 1.5-.515.04-1.346.08-2.982-1.5-1.645-1.582-4.176-3.76-2.987-8.266 1.188-4.51 2.688-10.281 3.758-10.598 1.066-.316 1.066.479 2.214.479 1.146 0 1.146-.795 2.215-.479 1.066.312 2.57 6.088 3.759 10.598 1.179 4.506-1.351 6.684-2.991 8.266zm11.876-8.067c-.067.021-.135.031-.202.031-.292 0-.561-.188-.649-.479-.165-.523-1.228-.604-1.848-.604-.378 0-.683-.309-.683-.682 0-.375.305-.683.683-.683 1.769 0 2.826.527 3.147 1.562.11.364-.092.744-.448.855zm11.391-12.26c-.631 4.707-3.084 9.608-9.211 8.226-6.131-1.386-9.966-5.773-10.638-9.096-.299-1.475.274-5.535 2.646-7.392 2.372-1.861 5.854-2.257 10.718-.199 4.865 2.056 7.118 3.757 6.485 8.461zm5.546 5.642c-.131.116-.293.174-.456.174-.186 0-.369-.075-.506-.225-.185-.205-.363-.21-1.009-.15-.119.013-.24.024-.365.033l-.428.031-.213-.373c-.513-.896-.585-3.184-.63-6.318-.017-1.032-.03-2.015-.081-2.582-.156-1.727-.438-2.729-2.453-5.129-1.949-2.317-1.317-5.355-.585-8.872.146-.708.299-1.438.436-2.188.066-.369.426-.614.792-.549.369.067.615.422.549.792-.141.766-.292 1.505-.441 2.223-.688 3.298-1.229 5.906.294 7.719 2.155 2.562 2.582 3.833 2.768 5.879.059.617.069 1.578.086 2.688.024 1.619.062 4.188.317 5.274.652-.061 1.369-.067 1.979.606.251.283.227.715-.054.967z"/></g></svg>